<?xml version="1.0" encoding="UTF-8"?>
<svg version="1.1" viewBox="0 0 64 64" xmlns="http://www.w3.org/2000/svg" xmlns:xlink="http://www.w3.org/1999/xlink">
  <defs>
    <radialGradient id="c" cx="124.41" cy="85.772" r="19.769" gradientTransform="matrix(-.7082 1.843 -1.8487 -.7137 379.28 -73.279)" gradientUnits="userSpaceOnUse">
      <stop stop-color="#6fb7d7" offset="0"/>
      <stop stop-color="#97e0a3" offset=".61677"/>
      <stop stop-color="#e0d3ad" offset=".76125"/>
      <stop stop-color="#fff" offset="1"/>
    </radialGradient>
    <radialGradient id="b" cx="119.89" cy="94.7" r="22.655" gradientTransform="matrix(-.21298 1.3488 -1.2728 -.20191 272.49 -35.783)" gradientUnits="userSpaceOnUse">
      <stop stop-color="#b059dc" offset="0"/>
      <stop stop-color="#d029c7" offset=".23844"/>
      <stop stop-color="#d25200" offset=".61526"/>
      <stop stop-color="#ffb51e" offset="1"/>
    </radialGradient>
    <radialGradient id="a" cx="119.89" cy="95.192" r="23.644" gradientTransform="matrix(-1.2557 -.53759 .51177 -1.2009 228.24 285.58)" gradientUnits="userSpaceOnUse">
      <stop stop-color="#8f1d00" offset="0"/>
      <stop stop-color="#8b110d" offset=".54997"/>
      <stop stop-color="#ff4b94" offset="1"/>
    </radialGradient>
    <radialGradient id="d" cx="118.24" cy="92.969" r="19.928" gradientTransform="matrix(.18653 1.5427 -1.388 .1686 236.61 -94.939)" gradientUnits="userSpaceOnUse">
      <stop stop-color="#62730b" offset="0"/>
      <stop stop-color="#83aa3a" offset=".70812"/>
      <stop stop-color="#c1c177" offset="1"/>
    </radialGradient>
  </defs>
  <g transform="translate(-95.295 -75.67)">
    <ellipse cx="127.7" cy="106.89" rx="24.282" ry="24.338" fill="url(#c)" stop-color="#000000"/>
    <g stroke-miterlimit="5">
      <path d="m142.34 87.471c-3.0467 2.7022-6.3128 5.3667-8.3986 8.9241-1.0255 1.3572 0.29875 2.7175 1.7861 2.5194 2.3716 0.63658 5.2329 1.6622 6.2236 4.1303-3e-3 1.7379-1.9512 2.8572-2.3489 4.5775-0.47491 0.69685-1.6538 4.2996 0.16434 2.2959 1.4158-1.1941 2.5148-2.9643 4.287-3.6276 0.65198 0.19114 0.0258 1.3703 0.90098 1.46 1.202 0.47647 2.8451-0.87143 3.7952-0.15918-1.6334 2.9394-5.1934 3.8925-8.0237 5.2998-0.93082 0.46144-2.9916 1.3117-2.1492 2.6674 2.1509 2.3319 5.6125 2.5797 8.5777 2.9575 1.9006 0.0922 4.3841 0.86034 3.4704-3.6151 3.5154-9.7041 0.0298-21.306-8.2849-27.43zm-25.512 3.2682c-2.322 0.59445-3.7599 2.8661-5.1521 4.6602-2.8342 3.4944-2.2219 8.4023-0.56688 12.271-1.4805-2.0028-3.2305-3.8497-4.4932-5.9937-1.1579-2.2856 0.92907-10.819-1.8779-2.677-4.0216 10.718 1.2897 24.434 11.466 29.065 0.59699-1.0831 2.2359-2.5749 1.4016-3.8642-0.93873-0.63437-2.8551-1.7334-1.7812-3.0685 2.2228-2.1897 5.358-3.0961 8.0396-4.5876 0.79222-0.28983 3.7658-1.8772 1.1738-1.6843-2.9974-0.79463-5.964-2.433-7.8547-4.9408-0.8603-1.0767 0.27753-2.1744 1.3514-2.368 1.3111-0.44247 2.9452-2.4093 1.2756-3.4552-1.9007-1.2823-4.3029-0.54302-6.3536-1.2156-1.5541-0.98235 0.12896-2.9952 0.74172-4.0566 1.316-2.1694 3.3808-4.1879 3.4948-6.855 0.0116-0.52387-0.21297-1.2723-0.86542-1.2303z" fill="url(#d)" opacity=".52582" stop-color="#000000" stroke="#008000"/>
      <ellipse cx="127.7" cy="106.89" rx="24.282" ry="24.338" fill="none" stop-color="#000000" stroke="#000dd5" stroke-width="2"/>
      <path d="m157.5 98.542c5.1403 33.001-20.373 39.612-34.917 37.36-27.514-4.26-25.812-28.651-25.812-34.829 0-5.5447 3.6326-9.9645 3.6326-9.9645 1.3131-2.5974 2.5963-5.2177 5.1706-6.8504l0.0984 6.0285c1.3824-2.3138 3.2116-3.355 4.5991-3.9648l0.97935 7.0284c1.5513 1.0238 2.4732 2.9208 6.2414 4.0177-0.3474 0.94157-0.66847 2.9698-2.5573 3.7335l-3.4584 1.3984s-3.3763 6.2862-0.86746 7.3185c2.5088 1.0323 10.051-2.648 10.682-6.7404 0.76992-4.996 1.0485-3.4422 2.5991-8.2056 2.1436-6.5847 3.2456-0.43357 2.588 1.5006-2.7844 8.1896 8.9893 3.6932 8.4641 7.1011-0.0624 0.40541-0.28305 1.5499-0.55884 1.5801-1.6567 0.18096-4.4262-0.26155-0.0609 0.41436 0.80317 0.12431 0.83003 2.7781-0.0657 2.6394-0.8385-0.12986-4.6532-0.25038-0.0793 0.45775 0.87584 0.13557 0.20205 2.6069-0.57127 2.4871-2.4924-0.38588-3.0124 0.11207-0.28822 0.53385 1.3279 0.20561-0.41996 2.3592-1.3081 2.2216-13.365-2.0693-19.484 1.1538-19.484 1.1538s3.5895 5.2293 12.786 6.6532c13.127 2.0324 19.867-6.6251 19.31-17.93-0.71616-14.552-2.6618-16.15-3.606-17.161 2.2075-0.0514 5.0409 2.8035 8.3744 7.778-1.3281-6.993-5.4962-12.44-7.7045-14.836 3.1952 1.4363 14.131 8.2774 15.813 19.076zm-46.486-2.3765c-0.84323 0.26146-2.3332 0.30468-3.2299-0.84996m-0.66129 3.9582c2.9317-0.95581 3.5752 0.81831 9.0604 0.94381" fill="url(#b)" stop-color="#000000" stroke="url(#a)" stroke-linecap="round" stroke-width="2" style="paint-order:normal"/>
    </g>
  </g>
</svg>
